<svg id="visual" viewBox="0 0 960 540" width="960" height="540" xmlns="http://www.w3.org/2000/svg" xmlns:xlink="http://www.w3.org/1999/xlink" version="1.1"><rect x="0" y="0" width="960" height="540" fill="#adabe0"></rect><path d="M0 326L16 329.5C32 333 64 340 96 350.2C128 360.3 160 373.7 192 378.7C224 383.7 256 380.3 288 369C320 357.7 352 338.3 384 339.7C416 341 448 363 480 359C512 355 544 325 576 312.2C608 299.3 640 303.7 672 319.8C704 336 736 364 768 373.5C800 383 832 374 864 360.7C896 347.3 928 329.7 944 320.8L960 312L960 541L944 541C928 541 896 541 864 541C832 541 800 541 768 541C736 541 704 541 672 541C640 541 608 541 576 541C544 541 512 541 480 541C448 541 416 541 384 541C352 541 320 541 288 541C256 541 224 541 192 541C160 541 128 541 96 541C64 541 32 541 16 541L0 541Z" fill="#706bc6"></path><path d="M0 401L16 391.2C32 381.3 64 361.7 96 351.7C128 341.7 160 341.3 192 340C224 338.7 256 336.3 288 341.8C320 347.3 352 360.7 384 365.7C416 370.7 448 367.3 480 366.8C512 366.3 544 368.7 576 365.3C608 362 640 353 672 359.3C704 365.7 736 387.3 768 399.5C800 411.7 832 414.3 864 408.2C896 402 928 387 944 379.5L960 372L960 541L944 541C928 541 896 541 864 541C832 541 800 541 768 541C736 541 704 541 672 541C640 541 608 541 576 541C544 541 512 541 480 541C448 541 416 541 384 541C352 541 320 541 288 541C256 541 224 541 192 541C160 541 128 541 96 541C64 541 32 541 16 541L0 541Z" fill="#645fb7"></path><path d="M0 399L16 394.8C32 390.7 64 382.3 96 384.5C128 386.7 160 399.3 192 405.8C224 412.3 256 412.7 288 409.7C320 406.7 352 400.3 384 406C416 411.7 448 429.3 480 432.5C512 435.7 544 424.3 576 421.7C608 419 640 425 672 427.5C704 430 736 429 768 425.3C800 421.7 832 415.3 864 408.5C896 401.7 928 394.3 944 390.7L960 387L960 541L944 541C928 541 896 541 864 541C832 541 800 541 768 541C736 541 704 541 672 541C640 541 608 541 576 541C544 541 512 541 480 541C448 541 416 541 384 541C352 541 320 541 288 541C256 541 224 541 192 541C160 541 128 541 96 541C64 541 32 541 16 541L0 541Z" fill="#5954a7"></path><path d="M0 410L16 411C32 412 64 414 96 425C128 436 160 456 192 455.2C224 454.3 256 432.7 288 431.8C320 431 352 451 384 450.7C416 450.3 448 429.7 480 429.3C512 429 544 449 576 459C608 469 640 469 672 465.7C704 462.3 736 455.7 768 447C800 438.3 832 427.7 864 426.8C896 426 928 435 944 439.5L960 444L960 541L944 541C928 541 896 541 864 541C832 541 800 541 768 541C736 541 704 541 672 541C640 541 608 541 576 541C544 541 512 541 480 541C448 541 416 541 384 541C352 541 320 541 288 541C256 541 224 541 192 541C160 541 128 541 96 541C64 541 32 541 16 541L0 541Z" fill="#4d4898"></path><path d="M0 452L16 457.8C32 463.7 64 475.3 96 480.8C128 486.3 160 485.7 192 481C224 476.3 256 467.7 288 462.5C320 457.3 352 455.7 384 455.2C416 454.7 448 455.3 480 456.3C512 457.3 544 458.7 576 465.5C608 472.3 640 484.7 672 486.7C704 488.7 736 480.3 768 471.2C800 462 832 452 864 456.2C896 460.3 928 478.7 944 487.8L960 497L960 541L944 541C928 541 896 541 864 541C832 541 800 541 768 541C736 541 704 541 672 541C640 541 608 541 576 541C544 541 512 541 480 541C448 541 416 541 384 541C352 541 320 541 288 541C256 541 224 541 192 541C160 541 128 541 96 541C64 541 32 541 16 541L0 541Z" fill="#423e8a"></path><path d="M0 480L16 482.7C32 485.3 64 490.7 96 493.2C128 495.7 160 495.3 192 495C224 494.7 256 494.3 288 494.3C320 494.3 352 494.7 384 493.8C416 493 448 491 480 488C512 485 544 481 576 479.5C608 478 640 479 672 480.5C704 482 736 484 768 489C800 494 832 502 864 500.8C896 499.7 928 489.3 944 484.2L960 479L960 541L944 541C928 541 896 541 864 541C832 541 800 541 768 541C736 541 704 541 672 541C640 541 608 541 576 541C544 541 512 541 480 541C448 541 416 541 384 541C352 541 320 541 288 541C256 541 224 541 192 541C160 541 128 541 96 541C64 541 32 541 16 541L0 541Z" fill="#37337b"></path></svg>