<svg id="visual" viewBox="0 0 960 540" width="960" height="540" xmlns="http://www.w3.org/2000/svg" xmlns:xlink="http://www.w3.org/1999/xlink" version="1.1"><rect x="0" y="0" width="960" height="540" fill="#242424"></rect><defs><linearGradient id="grad1_0" x1="43.8%" y1="0%" x2="100%" y2="100%"><stop offset="14.444444444444446%" stop-color="#37337b" stop-opacity="1"></stop><stop offset="85.55555555555554%" stop-color="#37337b" stop-opacity="1"></stop></linearGradient></defs><defs><linearGradient id="grad1_1" x1="43.8%" y1="0%" x2="100%" y2="100%"><stop offset="14.444444444444446%" stop-color="#37337b" stop-opacity="1"></stop><stop offset="85.55555555555554%" stop-color="#342e5d" stop-opacity="1"></stop></linearGradient></defs><defs><linearGradient id="grad1_2" x1="43.8%" y1="0%" x2="100%" y2="100%"><stop offset="14.444444444444446%" stop-color="#2d293f" stop-opacity="1"></stop><stop offset="85.55555555555554%" stop-color="#342e5d" stop-opacity="1"></stop></linearGradient></defs><defs><linearGradient id="grad1_3" x1="43.8%" y1="0%" x2="100%" y2="100%"><stop offset="14.444444444444446%" stop-color="#2d293f" stop-opacity="1"></stop><stop offset="85.55555555555554%" stop-color="#242424" stop-opacity="1"></stop></linearGradient></defs><defs><linearGradient id="grad2_0" x1="0%" y1="0%" x2="56.3%" y2="100%"><stop offset="14.444444444444446%" stop-color="#37337b" stop-opacity="1"></stop><stop offset="85.55555555555554%" stop-color="#37337b" stop-opacity="1"></stop></linearGradient></defs><defs><linearGradient id="grad2_1" x1="0%" y1="0%" x2="56.3%" y2="100%"><stop offset="14.444444444444446%" stop-color="#342e5d" stop-opacity="1"></stop><stop offset="85.55555555555554%" stop-color="#37337b" stop-opacity="1"></stop></linearGradient></defs><defs><linearGradient id="grad2_2" x1="0%" y1="0%" x2="56.3%" y2="100%"><stop offset="14.444444444444446%" stop-color="#342e5d" stop-opacity="1"></stop><stop offset="85.55555555555554%" stop-color="#2d293f" stop-opacity="1"></stop></linearGradient></defs><defs><linearGradient id="grad2_3" x1="0%" y1="0%" x2="56.3%" y2="100%"><stop offset="14.444444444444446%" stop-color="#242424" stop-opacity="1"></stop><stop offset="85.55555555555554%" stop-color="#2d293f" stop-opacity="1"></stop></linearGradient></defs><g transform="translate(960, 0)"><path d="M0 432C-43.3 438.9 -86.5 445.7 -111.8 417.3C-137.1 388.8 -144.4 325.1 -175 303.1C-205.6 281.1 -259.3 301 -285.7 285.7C-312 270.4 -310.9 219.9 -317.8 183.5C-324.8 147.1 -339.9 124.8 -360.3 96.5C-380.7 68.3 -406.3 34.2 -432 0L0 0Z" fill="#292732"></path><path d="M0 324C-32.4 329.1 -64.9 334.3 -83.9 313C-102.8 291.6 -108.3 243.8 -131.2 227.3C-154.2 210.9 -194.5 225.7 -214.3 214.3C-234 202.8 -233.1 164.9 -238.4 137.6C-243.6 110.3 -254.9 93.6 -270.2 72.4C-285.5 51.2 -304.8 25.6 -324 0L0 0Z" fill="#312c4e"></path><path d="M0 216C-21.6 219.4 -43.3 222.9 -55.9 208.6C-68.6 194.4 -72.2 162.5 -87.5 151.6C-102.8 140.6 -129.7 150.5 -142.8 142.8C-156 135.2 -155.4 109.9 -158.9 91.8C-162.4 73.6 -170 62.4 -180.1 48.3C-190.3 34.2 -203.2 17.1 -216 0L0 0Z" fill="#36316c"></path><path d="M0 108C-10.8 109.7 -21.6 111.4 -28 104.3C-34.3 97.2 -36.1 81.3 -43.7 75.8C-51.4 70.3 -64.8 75.2 -71.4 71.4C-78 67.6 -77.7 55 -79.5 45.9C-81.2 36.8 -85 31.2 -90.1 24.1C-95.2 17.1 -101.6 8.5 -108 0L0 0Z" fill="#37337b"></path></g><g transform="translate(0, 540)"><path d="M0 -432C34.2 -421.8 68.5 -411.7 109.2 -407.6C150 -403.6 197.2 -405.6 216 -374.1C234.8 -342.6 225.1 -277.7 246.8 -246.8C268.4 -215.9 321.4 -219.1 345.5 -199.5C369.7 -179.9 365.2 -137.5 374.8 -100.4C384.4 -63.4 408.2 -31.7 432 0L0 0Z" fill="#292732"></path><path d="M0 -324C25.7 -316.4 51.4 -308.8 81.9 -305.7C112.5 -302.7 147.9 -304.2 162 -280.6C176.1 -257 168.9 -208.2 185.1 -185.1C201.3 -161.9 241 -164.3 259.2 -149.6C277.3 -134.9 273.9 -103.1 281.1 -75.3C288.3 -47.5 306.1 -23.8 324 0L0 0Z" fill="#312c4e"></path><path d="M0 -216C17.1 -210.9 34.2 -205.8 54.6 -203.8C75 -201.8 98.6 -202.8 108 -187.1C117.4 -171.3 112.6 -138.8 123.4 -123.4C134.2 -107.9 160.7 -109.6 172.8 -99.8C184.9 -89.9 182.6 -68.7 187.4 -50.2C192.2 -31.7 204.1 -15.8 216 0L0 0Z" fill="#36316c"></path><path d="M0 -108C8.6 -105.5 17.1 -102.9 27.3 -101.9C37.5 -100.9 49.3 -101.4 54 -93.5C58.7 -85.7 56.3 -69.4 61.7 -61.7C67.1 -54 80.3 -54.8 86.4 -49.9C92.4 -45 91.3 -34.4 93.7 -25.1C96.1 -15.8 102 -7.9 108 0L0 0Z" fill="#37337b"></path></g></svg>