<svg id="visual" viewBox="0 0 450 900" width="450" height="900" xmlns="http://www.w3.org/2000/svg" xmlns:xlink="http://www.w3.org/1999/xlink" version="1.1"><rect x="0" y="0" width="450" height="900" fill="#242424"></rect><path d="M0 638L7.5 627.2C15 616.3 30 594.7 45 581.3C60 568 75 563 90 566.2C105 569.3 120 580.7 135 589C150 597.3 165 602.7 180 607.2C195 611.7 210 615.3 225 610.3C240 605.3 255 591.7 270 590.3C285 589 300 600 315 589C330 578 345 545 360 526.8C375 508.7 390 505.3 405 502.7C420 500 435 498 442.5 497L450 496L450 901L442.5 901C435 901 420 901 405 901C390 901 375 901 360 901C345 901 330 901 315 901C300 901 285 901 270 901C255 901 240 901 225 901C210 901 195 901 180 901C165 901 150 901 135 901C120 901 105 901 90 901C75 901 60 901 45 901C30 901 15 901 7.5 901L0 901Z" fill="#706bc6"></path><path d="M0 610L7.5 621.2C15 632.3 30 654.7 45 669.2C60 683.7 75 690.3 90 675.2C105 660 120 623 135 609.8C150 596.7 165 607.3 180 615.3C195 623.3 210 628.7 225 617.2C240 605.7 255 577.3 270 569.2C285 561 300 573 315 587C330 601 345 617 360 615C375 613 390 593 405 596.8C420 600.7 435 628.3 442.5 642.2L450 656L450 901L442.5 901C435 901 420 901 405 901C390 901 375 901 360 901C345 901 330 901 315 901C300 901 285 901 270 901C255 901 240 901 225 901C210 901 195 901 180 901C165 901 150 901 135 901C120 901 105 901 90 901C75 901 60 901 45 901C30 901 15 901 7.5 901L0 901Z" fill="#645fb7"></path><path d="M0 702L7.5 692.3C15 682.7 30 663.3 45 658.8C60 654.3 75 664.7 90 667.5C105 670.3 120 665.7 135 660.7C150 655.7 165 650.3 180 647.7C195 645 210 645 225 658.2C240 671.3 255 697.7 270 712.7C285 727.7 300 731.3 315 723.8C330 716.3 345 697.7 360 694.7C375 691.7 390 704.3 405 700.5C420 696.7 435 676.3 442.5 666.2L450 656L450 901L442.5 901C435 901 420 901 405 901C390 901 375 901 360 901C345 901 330 901 315 901C300 901 285 901 270 901C255 901 240 901 225 901C210 901 195 901 180 901C165 901 150 901 135 901C120 901 105 901 90 901C75 901 60 901 45 901C30 901 15 901 7.5 901L0 901Z" fill="#5954a7"></path><path d="M0 685L7.5 687.2C15 689.3 30 693.7 45 694.5C60 695.3 75 692.7 90 690.8C105 689 120 688 135 691.3C150 694.7 165 702.3 180 719.5C195 736.7 210 763.3 225 758.2C240 753 255 716 270 702.7C285 689.3 300 699.7 315 706.2C330 712.7 345 715.3 360 710.2C375 705 390 692 405 687.8C420 683.7 435 688.3 442.5 690.7L450 693L450 901L442.5 901C435 901 420 901 405 901C390 901 375 901 360 901C345 901 330 901 315 901C300 901 285 901 270 901C255 901 240 901 225 901C210 901 195 901 180 901C165 901 150 901 135 901C120 901 105 901 90 901C75 901 60 901 45 901C30 901 15 901 7.5 901L0 901Z" fill="#4d4898"></path><path d="M0 770L7.5 763.8C15 757.7 30 745.3 45 740C60 734.7 75 736.3 90 749.3C105 762.3 120 786.7 135 800.8C150 815 165 819 180 806.7C195 794.3 210 765.7 225 754.5C240 743.3 255 749.7 270 763.3C285 777 300 798 315 798C330 798 345 777 360 772.5C375 768 390 780 405 781C420 782 435 772 442.5 767L450 762L450 901L442.5 901C435 901 420 901 405 901C390 901 375 901 360 901C345 901 330 901 315 901C300 901 285 901 270 901C255 901 240 901 225 901C210 901 195 901 180 901C165 901 150 901 135 901C120 901 105 901 90 901C75 901 60 901 45 901C30 901 15 901 7.5 901L0 901Z" fill="#423e8a"></path><path d="M0 807L7.5 806.7C15 806.3 30 805.7 45 809.7C60 813.7 75 822.3 90 823.3C105 824.3 120 817.7 135 814.3C150 811 165 811 180 815.3C195 819.7 210 828.3 225 830.3C240 832.3 255 827.7 270 827.2C285 826.7 300 830.3 315 837.2C330 844 345 854 360 853.7C375 853.3 390 842.7 405 839.7C420 836.7 435 841.3 442.5 843.7L450 846L450 901L442.5 901C435 901 420 901 405 901C390 901 375 901 360 901C345 901 330 901 315 901C300 901 285 901 270 901C255 901 240 901 225 901C210 901 195 901 180 901C165 901 150 901 135 901C120 901 105 901 90 901C75 901 60 901 45 901C30 901 15 901 7.5 901L0 901Z" fill="#37337b"></path></svg>