<svg id="visual" viewBox="0 0 960 540" width="960" height="540" xmlns="http://www.w3.org/2000/svg" xmlns:xlink="http://www.w3.org/1999/xlink" version="1.1"><rect x="0" y="0" width="960" height="540" fill="#242424"></rect><path d="M0 382L16 375.7C32 369.3 64 356.7 96 348.7C128 340.7 160 337.3 192 339.2C224 341 256 348 288 353C320 358 352 361 384 363.7C416 366.3 448 368.7 480 365.7C512 362.7 544 354.3 576 353.5C608 352.7 640 359.3 672 352.8C704 346.3 736 326.7 768 315.8C800 305 832 303 864 301.3C896 299.7 928 298.3 944 297.7L960 297L960 541L944 541C928 541 896 541 864 541C832 541 800 541 768 541C736 541 704 541 672 541C640 541 608 541 576 541C544 541 512 541 480 541C448 541 416 541 384 541C352 541 320 541 288 541C256 541 224 541 192 541C160 541 128 541 96 541C64 541 32 541 16 541L0 541Z" fill="#706bc6"></path><path d="M0 365L16 371.8C32 378.7 64 392.3 96 401.2C128 410 160 414 192 404.8C224 395.7 256 373.3 288 365.3C320 357.3 352 363.7 384 368.5C416 373.3 448 376.7 480 369.8C512 363 544 346 576 341.2C608 336.3 640 343.7 672 352C704 360.3 736 369.7 768 368.5C800 367.3 832 355.7 864 358C896 360.3 928 376.7 944 384.8L960 393L960 541L944 541C928 541 896 541 864 541C832 541 800 541 768 541C736 541 704 541 672 541C640 541 608 541 576 541C544 541 512 541 480 541C448 541 416 541 384 541C352 541 320 541 288 541C256 541 224 541 192 541C160 541 128 541 96 541C64 541 32 541 16 541L0 541Z" fill="#645fb7"></path><path d="M0 421L16 415.2C32 409.3 64 397.7 96 395C128 392.3 160 398.7 192 400.3C224 402 256 399 288 396C320 393 352 390 384 388.5C416 387 448 387 480 394.8C512 402.7 544 418.3 576 427.2C608 436 640 438 672 433.5C704 429 736 418 768 416.3C800 414.7 832 422.3 864 420C896 417.7 928 405.3 944 399.2L960 393L960 541L944 541C928 541 896 541 864 541C832 541 800 541 768 541C736 541 704 541 672 541C640 541 608 541 576 541C544 541 512 541 480 541C448 541 416 541 384 541C352 541 320 541 288 541C256 541 224 541 192 541C160 541 128 541 96 541C64 541 32 541 16 541L0 541Z" fill="#5954a7"></path><path d="M0 411L16 412.3C32 413.7 64 416.3 96 416.7C128 417 160 415 192 413.8C224 412.7 256 412.3 288 414.3C320 416.3 352 420.7 384 431C416 441.3 448 457.7 480 454.7C512 451.7 544 429.3 576 421.3C608 413.3 640 419.7 672 423.7C704 427.7 736 429.3 768 426.2C800 423 832 415 864 412.3C896 409.7 928 412.3 944 413.7L960 415L960 541L944 541C928 541 896 541 864 541C832 541 800 541 768 541C736 541 704 541 672 541C640 541 608 541 576 541C544 541 512 541 480 541C448 541 416 541 384 541C352 541 320 541 288 541C256 541 224 541 192 541C160 541 128 541 96 541C64 541 32 541 16 541L0 541Z" fill="#4d4898"></path><path d="M0 462L16 458.3C32 454.7 64 447.3 96 444C128 440.7 160 441.3 192 449C224 456.7 256 471.3 288 480C320 488.7 352 491.3 384 484C416 476.7 448 459.3 480 452.5C512 445.7 544 449.3 576 457.5C608 465.7 640 478.3 672 478.3C704 478.3 736 465.7 768 463C800 460.3 832 467.7 864 468.3C896 469 928 463 944 460L960 457L960 541L944 541C928 541 896 541 864 541C832 541 800 541 768 541C736 541 704 541 672 541C640 541 608 541 576 541C544 541 512 541 480 541C448 541 416 541 384 541C352 541 320 541 288 541C256 541 224 541 192 541C160 541 128 541 96 541C64 541 32 541 16 541L0 541Z" fill="#423e8a"></path><path d="M0 484L16 483.7C32 483.3 64 482.7 96 485C128 487.3 160 492.7 192 493.3C224 494 256 490 288 488C320 486 352 486 384 488.7C416 491.3 448 496.7 480 497.8C512 499 544 496 576 495.7C608 495.3 640 497.7 672 501.8C704 506 736 512 768 511.8C800 511.7 832 505.3 864 503.5C896 501.7 928 504.3 944 505.7L960 507L960 541L944 541C928 541 896 541 864 541C832 541 800 541 768 541C736 541 704 541 672 541C640 541 608 541 576 541C544 541 512 541 480 541C448 541 416 541 384 541C352 541 320 541 288 541C256 541 224 541 192 541C160 541 128 541 96 541C64 541 32 541 16 541L0 541Z" fill="#37337b"></path></svg>