<svg id="visual" viewBox="0 0 960 540" width="960" height="540" xmlns="http://www.w3.org/2000/svg" xmlns:xlink="http://www.w3.org/1999/xlink" version="1.1"><path d="M0 212L87 201L175 109L262 158L349 168L436 93L524 201L611 233L698 125L785 104L873 147L960 239L960 0L873 0L785 0L698 0L611 0L524 0L436 0L349 0L262 0L175 0L87 0L0 0Z" fill="#242424"></path><path d="M0 293L87 260L175 222L262 276L349 271L436 212L524 287L611 325L698 212L785 168L873 260L960 336L960 237L873 145L785 102L698 123L611 231L524 199L436 91L349 166L262 156L175 107L87 199L0 210Z" fill="#2d2940"></path><path d="M0 406L87 465L175 401L262 406L349 449L436 417L524 422L611 460L698 476L785 422L873 455L960 476L960 334L873 258L785 166L698 210L611 323L524 285L436 210L349 269L262 274L175 220L87 258L0 291Z" fill="#342e5d"></path><path d="M0 541L87 541L175 541L262 541L349 541L436 541L524 541L611 541L698 541L785 541L873 541L960 541L960 474L873 453L785 420L698 474L611 458L524 420L436 415L349 447L262 404L175 399L87 463L0 404Z" fill="#37337b"></path></svg>